<?xml version="1.0" standalone="no"?>
<!DOCTYPE svg PUBLIC "-//W3C//DTD SVG 20010904//EN"
 "http://www.w3.org/TR/2001/REC-SVG-20010904/DTD/svg10.dtd">
<svg version="1.0" xmlns="http://www.w3.org/2000/svg"
 width="23.000000pt" height="19.000000pt" viewBox="0 0 23.000000 19.000000"
 preserveAspectRatio="xMidYMid meet">

<g transform="translate(0.000000,19.000000) scale(0.100000,-0.100000)"
fill="#000000" stroke="none">
<path d="M117 136 c-4 -9 -13 -16 -22 -16 -17 0 -20 -16 -4 -25 6 -4 8 -13 5
-20 -3 -9 6 -13 29 -13 23 0 32 4 29 13 -3 7 -1 16 5 20 16 9 13 25 -4 25 -7
0 -18 7 -23 16 -8 15 -10 15 -15 0z"/>
</g>
</svg>
